<?xml version="1.0" encoding="iso-8859-1"?>
<!-- Generator: Adobe Illustrator 19.0.0, SVG Export Plug-In . SVG Version: 6.00 Build 0)  -->
<svg version="1.1" id="Layer_1" xmlns="http://www.w3.org/2000/svg" xmlns:xlink="http://www.w3.org/1999/xlink" x="0px" y="0px"
	 viewBox="0 0 512 512" style="enable-background:new 0 0 512 512;" xml:space="preserve">
<path style="fill:#6E5840;" d="M372.87,44.522H205.913V0H372.87V44.522z"/>
<path style="fill:#9A7F50;" d="M512,194.783v311.652c0,3.073-2.492,5.565-5.565,5.565H74.188c-3.073,0-5.565-2.492-5.565-5.565
	V194.783c0-3.073,2.492-5.565,5.565-5.565h104.82V26.871c0-2.952,1.173-5.783,3.26-7.87L198.008,3.26
	c2.087-2.088,4.917-3.26,7.869-3.26h17.651v189.217h133.565V0h17.651c2.952,0,5.783,1.172,7.87,3.26l15.741,15.741
	c2.087,2.087,3.26,4.919,3.26,7.87v162.346h104.82C509.508,189.217,512,191.709,512,194.783z"/>
<path style="fill:#5C4D38;" d="M434.878,359.655c-1.831-3.916-5.761-6.417-10.083-6.417h-14.544
	c-18.047-33.132-33.004-56.084-46.842-71.909c-17.087-19.542-33.537-29.042-50.29-29.042c-16.751,0-33.201,9.5-50.288,29.042
	c-13.837,15.825-28.794,38.776-46.84,71.908h-14.545c-4.322,0-8.253,2.502-10.083,6.417c-1.83,3.916-1.229,8.536,1.543,11.852
	l63.235,75.657c2.115,2.53,5.242,3.992,8.54,3.992h96.878c3.297,0,6.426-1.461,8.54-3.992l63.235-75.657
	C436.107,368.191,436.708,363.571,434.878,359.655z M313.12,274.549c18.736,0,41.105,24.44,71.679,78.69H241.443
	C272.016,298.989,294.383,274.549,313.12,274.549z M356.356,428.895h-86.471l-44.63-53.396h175.732L356.356,428.895z
	 M191.057,311.652c0,6.147-4.983,11.13-11.13,11.13H12.97c-6.147,0-11.13-4.983-11.13-11.13s4.983-11.13,11.13-11.13h166.957
	C186.073,300.522,191.057,305.505,191.057,311.652z M168.796,400.696c0,6.147-4.983,11.13-11.13,11.13H46.362
	c-6.147,0-11.13-4.983-11.13-11.13c0-6.147,4.983-11.13,11.13-11.13h111.304C163.812,389.565,168.796,394.548,168.796,400.696z
	 M124.275,367.304H24.101c-6.147,0-11.13-4.983-11.13-11.13c0-6.147,4.983-11.13,11.13-11.13h100.174
	c6.147,0,11.13,4.983,11.13,11.13C135.405,362.321,130.421,367.304,124.275,367.304z"/>
<path style="fill:#CEB896;" d="M144.696,140.78v19.897c0,6.147-4.983,11.13-11.13,11.13c-6.147,0-11.13-4.983-11.13-11.13V140.78
	c0-8.161-6.638-14.8-14.798-14.8H46.013c-20.433,0-37.057-16.627-37.057-37.063c0-20.433,16.624-37.057,37.057-37.057h60.585
	c8.159,0,14.797-6.64,14.797-14.802c0-8.159-6.638-14.796-14.797-14.796H11.13C4.983,22.261,0,17.278,0,11.13S4.983,0,11.13,0
	h95.468c20.433,0,37.058,16.624,37.058,37.057c0,20.437-16.624,37.063-37.058,37.063H46.013c-8.159,0-14.796,6.637-14.796,14.796
	c0,8.162,6.637,14.802,14.796,14.802h61.624C128.071,103.719,144.696,120.344,144.696,140.78z"/>
<g>
</g>
<g>
</g>
<g>
</g>
<g>
</g>
<g>
</g>
<g>
</g>
<g>
</g>
<g>
</g>
<g>
</g>
<g>
</g>
<g>
</g>
<g>
</g>
<g>
</g>
<g>
</g>
<g>
</g>
</svg>
